<?xml version="1.0" encoding="UTF-8"?> <!-- Generator: Adobe Illustrator 23.0.1, SVG Export Plug-In . SVG Version: 6.00 Build 0) --> <svg xmlns="http://www.w3.org/2000/svg" xmlns:xlink="http://www.w3.org/1999/xlink" id="Layer_1" x="0px" y="0px" width="68px" height="68px" viewBox="0 0 68 68" style="enable-background:new 0 0 68 68;" xml:space="preserve"> <style type="text/css"> .st0{fill:#FE0062;} .st1{fill:#7F20FE;} </style> <g> <path class="st0" d="M68,34c0,18.7-15.3,34-34,34C15.3,68,0,52.7,0,34S15.3,0,34,0C52.7,0,68,15.3,68,34z M66.5,34 C66.5,16.1,51.9,1.5,34,1.5C16.1,1.5,1.5,16.1,1.5,34S16.1,66.5,34,66.5C51.9,66.5,66.5,51.9,66.5,34z"></path> <path class="st0" d="M34,16.3c-9.8,0-17.7,7.9-17.7,17.7c0,2.6,0.6,5.2,1.7,7.6c0.2,0.4,0.6,0.5,1,0.4c0.4-0.2,0.5-0.6,0.4-1 c-1-2.2-1.6-4.5-1.6-6.9c0-8.9,7.3-16.2,16.2-16.2S50.2,25.1,50.2,34c0,8.9-7.3,16.2-16.2,16.2c-2.6,0-5.1-0.6-7.3-1.8 c-0.4-0.2-0.8,0-1,0.3c-0.2,0.4,0,0.8,0.3,1c2.5,1.3,5.2,1.9,8,1.9c9.8,0,17.7-7.9,17.7-17.7C51.7,24.2,43.8,16.3,34,16.3z"></path> <path class="st0" d="M22,33.3c-0.3,0-0.6,0.2-0.7,0.5l-2.9,7l-6.2-4.3c-0.3-0.2-0.8-0.2-1.1,0.2c-0.2,0.3-0.2,0.8,0.2,1.1l6.9,4.9 c0.2,0.1,0.4,0.2,0.6,0.1c0.2-0.1,0.4-0.2,0.5-0.4l3.3-7.8c0.2-0.4,0-0.8-0.4-1C22.2,33.3,22.1,33.3,22,33.3z"></path> </g> </svg> 