<?xml version="1.0" encoding="UTF-8"?> <!-- Generator: Adobe Illustrator 23.0.1, SVG Export Plug-In . SVG Version: 6.00 Build 0) --> <svg xmlns="http://www.w3.org/2000/svg" xmlns:xlink="http://www.w3.org/1999/xlink" id="Layer_1" x="0px" y="0px" width="68px" height="68px" viewBox="0 0 68 68" style="enable-background:new 0 0 68 68;" xml:space="preserve"> <style type="text/css"> .st0{fill:#FE0062;} .st1{fill:#7F20FE;} </style> <g> <path class="st0" d="M34,68C15.3,68,0,52.7,0,34S15.3,0,34,0s34,15.3,34,34S52.7,68,34,68z M34,1.5C16.1,1.5,1.5,16.1,1.5,34 S16.1,66.5,34,66.5S66.5,51.9,66.5,34S51.9,1.5,34,1.5z"></path> <path class="st0" d="M42.9,44.3H25.7c-3.4,0-6.2-2.8-6.2-6.2c0-2.4,1.4-4.6,3.5-5.6c0.1-3.2,2.8-5.9,6-5.9c0.4,0,0.9,0,1.3,0.1 c1.5-2.6,4.2-4.1,7.2-4.1c4.6,0,8.4,3.8,8.4,8.4c0,0.5,0,1-0.1,1.5c2,1.1,3.3,3.1,3.3,5.5C49.1,41.5,46.4,44.3,42.9,44.3z M29,28.2 c-2.5,0-4.5,2-4.5,4.5c0,0.1,0,0.2,0,0.3c0,0.3-0.2,0.7-0.5,0.8c-1.8,0.7-3,2.4-3,4.3c0,2.6,2.1,4.6,4.6,4.6h17.3 c2.6,0,4.6-2.1,4.6-4.6c0-1.9-1.2-3.6-2.9-4.3c-0.4-0.1-0.6-0.5-0.5-0.9c0.2-0.6,0.2-1.2,0.2-1.8c0-3.8-3.1-6.9-6.9-6.9 c-2.6,0-5,1.5-6.1,3.8c-0.2,0.4-0.6,0.5-0.9,0.4C30,28.3,29.5,28.2,29,28.2z"></path> </g> </svg> 