<?xml version="1.0" encoding="UTF-8"?> <!-- Generator: Adobe Illustrator 23.0.1, SVG Export Plug-In . SVG Version: 6.00 Build 0) --> <svg xmlns="http://www.w3.org/2000/svg" xmlns:xlink="http://www.w3.org/1999/xlink" id="Layer_1" x="0px" y="0px" width="68px" height="68px" viewBox="0 0 68 68" style="enable-background:new 0 0 68 68;" xml:space="preserve"> <style type="text/css"> .st0{fill:#FE0062;} .st1{fill:#7F20FE;} </style> <g> <path class="st1" d="M34,68C15.3,68,0,52.7,0,34S15.3,0,34,0s34,15.3,34,34S52.7,68,34,68z M34,1.5C16.1,1.5,1.5,16.1,1.5,34 S16.1,66.5,34,66.5S66.5,51.9,66.5,34S51.9,1.5,34,1.5z"></path> <path class="st1" d="M48.3,23.3H19.7c-1.2,0-2.1,1-2.1,2.1v16.7c0,1.2,1,2.1,2.1,2.1h28.7c1.2,0,2.1-1,2.1-2.1V25.5 C50.5,24.3,49.5,23.3,48.3,23.3z M48,24.9l-14,10.6L20.5,24.9H48z M48.3,42.7H19.7c-0.3,0-0.6-0.3-0.6-0.6V25.7l14.5,11.4 c0.1,0.1,0.3,0.2,0.5,0.2c0.2,0,0.3-0.1,0.5-0.2l14.4-10.9v16C48.9,42.5,48.6,42.7,48.3,42.7z"></path> </g> </svg> 